<?xml version="1.0" standalone="yes"?>
<svg xmlns="http://www.w3.org/2000/svg" width="657" height="657">
<path style="fill:#19094d; stroke:none;" d="M0 0L0 657L657 657L657 0L0 0z"/>
<path style="fill:#2a7899; stroke:none;" d="M194 282L195 308L197 319L196 293L194 282M191 283L192 284L191 283z"/>
<path style="fill:#d9ff01; stroke:none;" d="M177 288L177 334C177 343.56 175.808 353.852 179.09 363C181.321 369.218 184.966 374.498 190.001 378.787C194.236 382.396 199.617 384.793 205 386.1C253.645 397.914 266.071 317.429 217 315.04C208.918 314.647 202.486 316.112 195 319L195 283L177 288z"/>
<path style="fill:#2a7899; stroke:none;" d="M188 284L189 285L188 284M185 285L186 286L185 285M20 286L20 361C20 366.098 17.3478 382.602 21.6034 385.972C24.0522 387.912 29.0897 387 32 387L59 387L59 386L21 386L21 287L59 287C48.726 282.689 31.1724 286 20 286M182 286L183 287L182 286z"/>
<path style="fill:#d9ff01; stroke:none;" d="M21 287L21 386C38.5173 386 63.2343 390.477 79 381.468C96.4718 371.483 97.4378 343.571 79 334C91.5732 320.214 91.6766 297.122 72 289.468C57.0529 283.653 36.7993 287 21 287z"/>
<path style="fill:#2a7899; stroke:none;" d="M64 287L64 288L67 288L64 287M179 287L180 288L179 287z"/>
<path style="fill:#ffffff; stroke:none;" d="M315 287L315 305L342 305L342 386L361 386L361 305L389 305L389 287L315 287z"/>
<path style="fill:#2a7899; stroke:none;" d="M69 288L70 289L69 288M72 289L73 290L72 289M74 290L75 291L74 290M76 291L77 292L76 291M79 293L80 294L79 293M80 294L81 295L80 294M81 295L82 296L81 295M82 296L83 297L82 296M83 297L84 298L83 297M84 299L85 300L84 299M85 300L86 301L85 300M86 303L87 304L86 303M40 305L41 306L40 305z"/>
<path style="fill:#19094d; stroke:none;" d="M41.6034 306.028C38.699 308.328 38.6989 322.672 41.6034 324.972C46.1431 328.568 60.7864 326.168 64.7716 322.57C78.4465 310.223 50.4385 299.03 41.6034 306.028z"/>
<path style="fill:#2a7899; stroke:none;" d="M57 305L57 306L60 306L57 305M62 306L63 307L62 306M87 306L88 307L87 306M64 307L65 308L64 307M66 309L67 310L66 309M67 311L68 312L67 311M408 313L409 314L408 313z"/>
<path style="fill:#ffffff; stroke:none;" d="M409 313L391 319C395.876 339.482 392 364.945 392 386L410 386L410 336L409 313z"/>
<path style="fill:#2a7899; stroke:none;" d="M131 314L131 315L137 315L131 314M211 314L211 315L217 315L211 314M286 314L286 315L292 315L286 314M405 314L406 315L405 314M124 315L125 316L124 315z"/>
<path style="fill:#d9ff01; stroke:none;" d="M125 315.518C80.0899 325.099 95.0385 395.551 140 386.334C186.829 376.735 171.297 305.64 125 315.518z"/>
<path style="fill:#2a7899; stroke:none;" d="M141.667 315.333L142.333 315.667L141.667 315.333M204 315L205 316L204 315M221 315L222 316L221 315M279.667 315.333L280.333 315.667L279.667 315.333z"/>
<path style="fill:#d9ff01; stroke:none;" d="M281 315.465C235.595 323.709 250.181 394.459 295 386.536C342.128 378.206 327.894 306.949 281 315.465z"/>
<path style="fill:#2a7899; stroke:none;" d="M297 315L298 316L297 315z"/>
<path style="fill:#06dde0; stroke:none;" d="M402 315L403 316L402 315z"/>
<path style="fill:#ffffff; stroke:none;" d="M472 383L472 411C476.696 410.306 487.08 408.609 489.972 404.49C494.41 398.169 491 379.653 491 372C491 343.688 485.015 312.185 449 315.093C421.47 317.317 409.768 352.204 425.301 372.961C436.758 388.27 455.515 389.35 472 383M499 315C499 331.796 494.824 355.816 503.363 371C515.638 392.831 549.463 391.938 560.084 369C567.049 353.957 563 331.232 563 315L545 315C545 328.397 548.443 347.502 543.005 359.996C538.975 369.257 526.804 371.088 520.653 362.906C513.154 352.931 518 327.136 518 315L499 315M629 377C627.018 372.837 620.966 365.588 616 365.102C612.658 364.775 609.248 367.792 606 368.456C598.936 369.901 592.861 365.42 589 360L639 360C639 348.293 639.193 337.595 631.181 328.09C615.163 309.086 583.491 311.568 571.824 334C559.613 357.479 576.362 384.65 602 386.674C612.109 387.473 620.932 382.265 629 377z"/>
<path style="fill:#2a7899; stroke:none;" d="M121 316L122 317L121 316M144.667 316.333L145.333 316.667L144.667 316.333M201 316L202 317L201 316M224.667 316.333L225.333 316.667L224.667 316.333M276 316L277 317L276 316M300 316L301 317L300 316z"/>
<path style="fill:#06dde0; stroke:none;" d="M399 316L400 317L399 316z"/>
<path style="fill:#2a7899; stroke:none;" d="M118 317L119 318L118 317M147 317L148 318L147 317M198 317L199 318L198 317M227 317L228 318L227 317M303 317L304 318L303 317z"/>
<path style="fill:#06dde0; stroke:none;" d="M396 317L397 318L396 317z"/>
<path style="fill:#2a7899; stroke:none;" d="M116 318L117 319L116 318M149 318L150 319L149 318M229 318L230 319L229 318M272 318L273 319L272 318M305 318L306 319L305 318z"/>
<path style="fill:#06dde0; stroke:none;" d="M393 318L394 319L393 318z"/>
<path style="fill:#2a7899; stroke:none;" d="M67 319L68 320L67 319M87.3333 319.667L87.6667 320.333L87.3333 319.667M151 319L152 320L151 319M231 319L232 320L231 319M270 319L271 320L270 319M153 320L154 321L153 320M233 320L234 321L233 320M268 320L269 321L268 320M66 321L67 322L66 321M111 321L112 322L111 321M154 321L155 322L154 321M234 321L235 322L234 321M65 322L66 323L65 322M86 322L87 323L86 322M110 322L111 323L110 322M155 322L156 323L155 322M235 322L236 323L235 322M311 322L312 323L311 322M64 323L65 324L64 323M264 323L265 324L264 323M312 323L313 324L312 323M62 324L63 325L62 324M158 324L159 325L158 324M263 324L264 325L263 324M40 325L41 326L40 325M58.6667 325.333L59.3333 325.667L58.6667 325.333M85 325L86 326L85 325M159 325L160 326L159 325M239 325L240 326L239 325M262 325L263 326L262 325M160 326L161 327L160 326M261 326L262 327L261 326M105 327L106 328L105 327M240 327L241 328L240 327M316 327L317 328L316 327M83 328L84 329L83 328M104 328L105 329L104 328M161 328L162 329L161 328M241 328L242 329L241 328M162 329L163 330L162 329M242 329L243 330L242 329M163 330L164 331L163 330M243 330L244 331L243 330M258 330L259 331L258 330M102 331L103 332L102 331M319 331L320 332L319 331M164 332L165 333L164 332M244 332L245 333L244 332M79 333L80 334L79 333M101 333L102 334L101 333M129 333L129 334L132 334L129 333z"/>
<path style="fill:#19094d; stroke:none;" d="M132 333.61C108.841 335.016 112.787 370.174 136 367.895C157.376 365.796 153.217 332.323 132 333.61z"/>
<path style="fill:#2a7899; stroke:none;" d="M134 333L134 334L137 334L134 333M209 333L209 334L212 334L209 333z"/>
<path style="fill:#19094d; stroke:none;" d="M212 333.61C189.327 334.987 192.219 369.665 215 367.906C237.037 366.204 233.858 332.284 212 333.61z"/>
<path style="fill:#2a7899; stroke:none;" d="M214 333L214 334L217 334L214 333M285 333L285 334L288 334L285 333z"/>
<path style="fill:#19094d; stroke:none;" d="M288 333.613C265.138 334.838 267.296 369.494 290 367.903C312.061 366.357 309.961 332.437 288 333.613z"/>
<path style="fill:#2a7899; stroke:none;" d="M290 333L290 334L293 334L290 333M320 333L321 334L320 333z"/>
<path style="fill:#19094d; stroke:none;" d="M451 333.483C428.977 337.767 434.755 372.539 457 368.528C479.798 364.417 473.787 329.051 451 333.483M588 342L619 342C611.515 329.644 595.886 330.906 588 342z"/>
<path style="fill:#2a7899; stroke:none;" d="M80 334L81 335L80 334M126 334L127 335L126 334M139 334L140 335L139 334M165 334L166 335L165 334M206 334L207 335L206 334M219 334L220 335L219 334M245 334L246 335L245 334M282 334L283 335L282 334M294.667 334.333L295.333 334.667L294.667 334.333M82 335L83 336L82 335M124 335L125 336L124 335M141 335L142 336L141 335M166.333 335.667L166.667 336.333L166.333 335.667M204 335L205 336L204 335M221 335L222 336L221 335M280 335L281 336L280 335M297 335L298 336L297 335M83 336L84 337L83 336M99.3333 336.667L99.6667 337.333L99.3333 336.667M143 336L144 337L143 336M223 336L224 337L223 336M246 336L247 337L246 336M278 336L279 337L278 336M298 336L299 337L298 336M84 337L85 338L84 337M144 337L145 338L144 337M201 337L202 338L201 337M224 337L225 338L224 337M277 337L278 338L277 337M300 337L301 338L300 337M322 337L323 338L322 337M85 338L86 339L85 338M120 338L121 339L120 338M167.333 338.667L167.667 339.333L167.333 338.667M200 338L201 339L200 338M247.333 338.667L247.667 339.333L247.333 338.667M254 338L255 339L254 338M276 338L277 339L276 338M301 338L302 339L301 338M86 339L87 340L86 339M98.3333 339.667L98.6667 340.333L98.3333 339.667M146 339L147 340L146 339M226 339L227 340L226 339M275 339L276 340L275 339M302 339L303 340L302 339M87 340L88 341L87 340M147 340L148 341L147 340M227 340L228 341L227 340M274 340L275 341L274 340M323 340L324 341L323 340M118 341L119 342L118 341M168.333 341.667L168.667 342.333L168.333 341.667M198 341L199 342L198 341M303 341L304 342L303 341M88 342L89 343L88 342M148 342L149 343L148 342M228 342L229 343L228 342M248 342L249 343L248 342M304.333 342.667L304.667 343.333L304.333 342.667M89 343L90 344L89 343M97 343L97 346L98 346L97 343M117 343L118 344L117 343M272 343L273 344L272 343M324 343L324 346L325 346L324 343M40 344L41 345L40 344z"/>
<path style="fill:#19094d; stroke:none;" d="M41.6034 345.028C38.5669 347.433 38.5668 364.567 41.6034 366.972C46.4495 370.81 64.3649 368.047 68.7716 364.347C84.4925 351.149 51.5895 337.119 41.6034 345.028z"/>
<path style="fill:#2a7899; stroke:none;" d="M57 344L57 345L61 345L57 344M149 344L150 345L149 344M229 344L230 345L229 344M64 345L65 346L64 345M90.3333 345.667L90.6667 346.333L90.3333 345.667M116 345L117 346L116 345M196 345L197 346L196 345M305 345L306 346L305 345M271.333 346.667L271.667 347.333L271.333 346.667M68 347L69 348L68 347M150.333 347.667L150.667 348.333L150.333 347.667M169 347L169 355L170 355L169 347M230.333 347.667L230.667 348.333L230.333 347.667M252 347L252 350L253 350L252 347M69 348L70 349L69 348M91.3333 348.667L91.6667 349.333L91.3333 348.667M249 348L249 354L250 354L249 348M70 349L71 350L70 349M115.333 350.667L115.667 351.333L115.333 350.667M195 350L195 353L196 353L195 350M306 350L307 351L306 350M71 351L72 352L71 351M252 351L252 356L253 356L252 351M92 352L92 356L93 356L92 352M150 352L150 355L151 355L150 352M230 352L230 355L231 355L230 352M271.333 353.667L271.667 354.333L271.333 353.667M72 354L72 359L73 359L72 354M116.333 355.667L116.667 356.333L116.333 355.667M97 356L97 359L98 359L97 356M196 356L197 357L196 356M324.333 356.667L324.667 357.333L324.333 356.667M149 357L150 358L149 357M177.333 357.667L177.667 358.333L177.333 357.667M229 357L230 358L229 357M272 357L273 358L272 357M117 358L118 359L117 358M197 358L198 359L197 358M304 358L305 359L304 358M92 359L92 363L93 363L92 359M148 359L149 360L148 359M228 359L229 360L228 359M248 359L249 360L248 359M253.333 359.667L253.667 360.333L253.333 359.667M273 359L274 360L273 359M118 360L119 361L118 360M168 360L169 361L168 360M198 360L199 361L198 360M303 360L304 361L303 360M71 361L72 362L71 361M98 361L99 362L98 361M119 361L120 362L119 361M178 361L179 362L178 361M302 361L303 362L302 361M323 361L324 362L323 361M146 362L147 363L146 362M247 362L248 363L247 362M254.333 362.667L254.667 363.333L254.333 362.667M275 362L276 363L275 362M120 363L121 364L120 363M145 363L146 364L145 363M167 363L168 364L167 363M200 363L201 364L200 363M225 363L226 364L225 363M276 363L277 364L276 363M99 364L100 365L99 364M179 364L180 365L179 364M277 364L278 365L277 364M299 364L300 365L299 364M322 364L323 365L322 364M67 365L68 366L67 365M123 365L124 366L123 365M166 365L167 366L166 365M203 365L204 366L203 365M246 365L247 366L246 365M255 365L256 366L255 365M298 365L299 366L298 365M65 366L66 367L65 366M91 366L92 367L91 366M100 366L101 367L100 366M125 366L126 367L125 366M180 366L181 367L180 366M204.667 366.333L205.333 366.667L204.667 366.333M280 366L281 367L280 366M296 366L297 367L296 366M321 366L322 367L321 366M40 367L41 368L40 367M58 367L58 368L62 368L58 367M127 367L128 368L127 367M165 367L166 368L165 367M207 367L208 368L207 367M218 367L219 368L218 367M245 367L246 368L245 367M256 367L257 368L256 367M283 367L284 368L283 367M293.667 367.333L294.333 367.667L293.667 367.333M101 368L102 369L101 368M131 368L131 369L135 369L131 368M181 368L182 369L181 368M211 368L211 369L215 369L211 368M287 368L287 369L291 369L287 368M320 368L321 369L320 368M90 369L91 370L90 369M164 369L165 370L164 369M244 369L245 370L244 369M257 369L258 370L257 369M102 370L103 371L102 370M182 370L183 371L182 370M319 370L320 371L319 370M163 371L164 372L163 371M318 371L319 372L318 371M162 372L163 373L162 372M242 372L243 373L242 372M259 372L260 373L259 372M161 373L162 374L161 373M241 373L242 374L241 373M260 373L261 374L260 373M87 374L88 375L87 374M105 374L106 375L105 374M185 374L186 375L185 374M240 374L241 375L240 374M261 374L262 375L261 374M316 374L317 375L316 374M86 375L87 376L86 375M106 375L107 376L106 375M186 375L187 376L186 375M315 375L316 376L315 375M85 376L86 377L85 376M187 376L188 377L187 376M314 376L315 377L314 376M84 377L85 378L84 377M108 377L109 378L108 377M188 377L189 378L188 377M237 377L238 378L237 377M313 377L314 378L313 377M83 378L84 379L83 378M236 378L237 379L236 378M265 378L266 379L265 378M312 378L313 379L312 378M82 379L83 380L82 379M155 379L156 380L155 379M235 379L236 380L235 379M266 379L267 380L266 379M80 380L81 381L80 380M154 380L155 381L154 380M267 380L268 381L267 380M79 381L80 382L79 381M113 381L114 382L113 381M152 381L153 382L152 381M193 381L194 382L193 381M232 381L233 382L232 381M268.667 381.333L269.333 381.667L268.667 381.333M308 381L309 382L308 381M77 382L78 383L77 382M115 382L116 383L115 382M195 382L196 383L195 382M230 382L231 383L230 382M270.667 382.333L271.333 382.667L270.667 382.333M306 382L307 383L306 382M74 383L75 384L74 383M117 383L118 384L117 383M149 383L150 384L149 383M197 383L198 384L197 383M272 383L273 384L272 383M71.6667 384.333L72.3333 384.667L71.6667 384.333M147 384L148 385L147 384M199 384L200 385L199 384M226 384L227 385L226 384M274.667 384.333L275.333 384.667L274.667 384.333M67 385L68 386L67 385M122 385L123 386L122 385M143 385L144 386L143 385M202 385L203 386L202 385M223 385L224 386L223 385M277.667 385.333L278.333 385.667L277.667 385.333M299 385L300 386L299 385M125.667 386.333L126.333 386.667L125.667 386.333M139.667 386.333L140.333 386.667L139.667 386.333M205.667 386.333L206.333 386.667L205.667 386.333M219.667 386.333L220.333 386.667L219.667 386.333M280 386L280 387L283 387L280 386M295.667 386.333L296.333 386.667L295.667 386.333z"/>
</svg>
